<svg id="visual" viewBox="0 0 900 600" width="900" height="600" xmlns="http://www.w3.org/2000/svg" xmlns:xlink="http://www.w3.org/1999/xlink" version="1.1"><rect x="0" y="0" width="900" height="600" fill="#ffffff"></rect><path d="M0 302L129 316L257 354L386 284L514 289L643 279L771 318L900 268L900 601L771 601L643 601L514 601L386 601L257 601L129 601L0 601Z" fill="#e2146d"></path><path d="M0 382L129 378L257 387L386 328L514 366L643 340L771 409L900 416L900 601L771 601L643 601L514 601L386 601L257 601L129 601L0 601Z" fill="#a91870"></path><path d="M0 385L129 440L257 442L386 400L514 426L643 446L771 456L900 386L900 601L771 601L643 601L514 601L386 601L257 601L129 601L0 601Z" fill="#6e1d65"></path><path d="M0 458L129 463L257 458L386 461L514 443L643 511L771 452L900 460L900 601L771 601L643 601L514 601L386 601L257 601L129 601L0 601Z" fill="#38194d"></path><path d="M0 548L129 507L257 521L386 555L514 537L643 515L771 519L900 534L900 601L771 601L643 601L514 601L386 601L257 601L129 601L0 601Z" fill="#0f0c2d"></path></svg>