<svg id="visual" viewBox="0 0 900 600" width="900" height="600" xmlns="http://www.w3.org/2000/svg" xmlns:xlink="http://www.w3.org/1999/xlink" version="1.1"><rect x="0" y="0" width="900" height="600" fill="#ffffff"></rect><path d="M0 324L129 245L257 282L386 230L514 348L643 300L771 226L900 284L900 0L771 0L643 0L514 0L386 0L257 0L129 0L0 0Z" fill="#e2146d"></path><path d="M0 258L129 177L257 282L386 197L514 222L643 180L771 169L900 204L900 0L771 0L643 0L514 0L386 0L257 0L129 0L0 0Z" fill="#a91870"></path><path d="M0 140L129 167L257 172L386 196L514 126L643 171L771 185L900 145L900 0L771 0L643 0L514 0L386 0L257 0L129 0L0 0Z" fill="#6e1d65"></path><path d="M0 146L129 118L257 129L386 110L514 110L643 129L771 100L900 125L900 0L771 0L643 0L514 0L386 0L257 0L129 0L0 0Z" fill="#38194d"></path><path d="M0 73L129 51L257 99L386 35L514 38L643 43L771 94L900 81L900 0L771 0L643 0L514 0L386 0L257 0L129 0L0 0Z" fill="#0f0c2d"></path></svg>