<svg id="visual" viewBox="0 0 675 900" width="675" height="900" xmlns="http://www.w3.org/2000/svg" xmlns:xlink="http://www.w3.org/1999/xlink" version="1.1"><rect x="0" y="0" width="675" height="900" fill="#ffffff"></rect><path d="M0 649L113 637L225 613L338 665L450 685L563 641L675 656L675 901L563 901L450 901L338 901L225 901L113 901L0 901Z" fill="#d00b61"></path><path d="M0 671L113 742L225 675L338 672L450 711L563 742L675 705L675 901L563 901L450 901L338 901L225 901L113 901L0 901Z" fill="#8a1665"></path><path d="M0 733L113 743L225 740L338 746L450 734L563 788L675 795L675 901L563 901L450 901L338 901L225 901L113 901L0 901Z" fill="#451952"></path><path d="M0 827L113 802L225 850L338 810L450 820L563 838L675 819L675 901L563 901L450 901L338 901L225 901L113 901L0 901Z" fill="#0f0c2d"></path></svg>