<svg id="visual" viewBox="0 0 675 900" width="675" height="900" xmlns="http://www.w3.org/2000/svg" xmlns:xlink="http://www.w3.org/1999/xlink" version="1.1"><rect x="0" y="0" width="675" height="900" fill="#ffffff"></rect><path d="M0 584L113 536L225 660L338 512L450 630L563 593L675 608L675 0L563 0L450 0L338 0L225 0L113 0L0 0Z" fill="#d00b61"></path><path d="M0 534L113 528L225 430L338 413L450 440L563 492L675 528L675 0L563 0L450 0L338 0L225 0L113 0L0 0Z" fill="#9c1266"></path><path d="M0 397L113 305L225 415L338 338L450 280L563 320L675 404L675 0L563 0L450 0L338 0L225 0L113 0L0 0Z" fill="#671a5e"></path><path d="M0 182L113 281L225 231L338 194L450 226L563 257L675 258L675 0L563 0L450 0L338 0L225 0L113 0L0 0Z" fill="#36184a"></path><path d="M0 149L113 129L225 145L338 99L450 89L563 160L675 94L675 0L563 0L450 0L338 0L225 0L113 0L0 0Z" fill="#0f0c2d"></path></svg>