<svg id="visual" viewBox="0 0 900 600" width="900" height="600" xmlns="http://www.w3.org/2000/svg" xmlns:xlink="http://www.w3.org/1999/xlink" version="1.1"><rect x="0" y="0" width="900" height="600" fill="#ffffff"></rect><path d="M0 468L129 454L257 477L386 457L514 423L643 393L771 424L900 390L900 601L771 601L643 601L514 601L386 601L257 601L129 601L0 601Z" fill="#e8146c"></path><path d="M0 514L129 435L257 482L386 464L514 491L643 454L771 484L900 442L900 601L771 601L643 601L514 601L386 601L257 601L129 601L0 601Z" fill="#991a6e"></path><path d="M0 545L129 540L257 505L386 506L514 489L643 499L771 546L900 479L900 601L771 601L643 601L514 601L386 601L257 601L129 601L0 601Z" fill="#4b1c57"></path><path d="M0 556L129 572L257 560L386 561L514 523L643 529L771 548L900 527L900 601L771 601L643 601L514 601L386 601L257 601L129 601L0 601Z" fill="#0f0c2d"></path></svg>